<svg xmlns="http://www.w3.org/2000/svg" x="0px" y="0px" width="18" height="18" viewBox="0 0 172 172">
    <g transform="translate(4.73,4.73) scale(0.945,0.945)">
        <g fill="none" fill-rule="nonzero" stroke="none" stroke-width="none" stroke-linecap="butt" stroke-linejoin="none" stroke-miterlimit="10" stroke-dasharray="" stroke-dashoffset="0" font-family="none" font-weight="none" font-size="none" text-anchor="none" style="mix-blend-mode: normal">
            <g fill="#1abc9c" stroke="#1abc9c" stroke-width="10" stroke-linejoin="round">
                <path d="M86,112.875h10.75v59.125h-10.75z"></path>
                <path d="M64.5,139.75h53.75v10.75h-53.75zM91.375,118.25c-26.875,0 -48.375,-21.5 -48.375,-48.375c0,-26.875 21.5,-48.375 48.375,-48.375c26.875,0 48.375,21.5 48.375,48.375c0,26.875 -21.5,48.375 -48.375,48.375zM91.375,32.25c-20.425,0 -37.625,17.2 -37.625,37.625c0,20.425 17.2,37.625 37.625,37.625c20.425,0 37.625,-17.2 37.625,-37.625c0,-20.425 -17.2,-37.625 -37.625,-37.625z"></path>
                <path d="M91.375,32.25c-18.275,0 -32.25,-13.975 -32.25,-32.25h10.75c0,11.825 9.675,21.5 21.5,21.5c11.825,0 21.5,-9.675 21.5,-21.5h10.75c0,18.275 -13.975,32.25 -32.25,32.25z"></path>
            </g>
            <path d="M0,172v-172h172v172z" fill="none" stroke="none" stroke-width="1" stroke-linejoin="miter"></path>
            <g fill="#1abc9c" stroke="none" stroke-width="1" stroke-linejoin="miter">
                <path d="M86,112.875h10.75v59.125h-10.75z"></path>
                <path d="M64.5,139.75h53.75v10.75h-53.75zM91.375,118.25c-26.875,0 -48.375,-21.5 -48.375,-48.375c0,-26.875 21.5,-48.375 48.375,-48.375c26.875,0 48.375,21.5 48.375,48.375c0,26.875 -21.5,48.375 -48.375,48.375zM91.375,32.25c-20.425,0 -37.625,17.2 -37.625,37.625c0,20.425 17.2,37.625 37.625,37.625c20.425,0 37.625,-17.2 37.625,-37.625c0,-20.425 -17.2,-37.625 -37.625,-37.625z"></path>
                <path d="M91.375,32.25c-18.275,0 -32.25,-13.975 -32.25,-32.25h10.75c0,11.825 9.675,21.5 21.5,21.5c11.825,0 21.5,-9.675 21.5,-21.5h10.75c0,18.275 -13.975,32.25 -32.25,32.25z"></path>
            </g>
            <path d="" fill="none" stroke="none" stroke-width="1" stroke-linejoin="miter"></path>
        </g>
    </g>
</svg>